# xmcd
#
# Track frame offsets: 
#        150
#        17252
#        30477
#        43570
#        61703
#        88035
#        105617
#        123508
#        133276
#        153646
#
# Disc length: 2474 seconds
#
# Revision: 0
# Processed by: cddbd v1.5.2PL0 Copyright (c) Steve Scherf et al.
# Submitted via: ExactAudioCopy v0.95b4
#
DISCID=7809a80a
DTITLE=Sturgill Simpson - Sound and Fury
DYEAR=2019
DGENRE=Country
TTITLE0=Ronin
TTITLE1=Remember To Breathe
TTITLE2=Sing Along
TTITLE3=A Good Look
TTITLE4=Make Art Not Friends
TTITLE5=Best Clockmaker On Mars
TTITLE6=All Said And Done
TTITLE7=Last Man Standing
TTITLE8=Mercury In Retrograde
TTITLE9=Fastest Horse In Town
EXTD=
EXTT0=
EXTT1=
EXTT2=
EXTT3=
EXTT4=
EXTT5=
EXTT6=
EXTT7=
EXTT8=
EXTT9=
PLAYORDER=
